<mxfile host="Electron" agent="Mozilla/5.0 (Macintosh; Intel Mac OS X 10_15_7) AppleWebKit/537.36 (KHTML, like Gecko) draw.io/24.7.5 Chrome/126.0.6478.183 Electron/31.3.0 Safari/537.36" version="24.7.5">
  <diagram name="Page-1" id="SHD7UDlB_XUJz2UPsoch">
    <mxGraphModel dx="635" dy="-8729" grid="1" gridSize="10" guides="1" tooltips="1" connect="1" arrows="1" fold="1" page="1" pageScale="1" pageWidth="850" pageHeight="1100" background="#FFFFFF" math="1" shadow="0">
      <root>
        <mxCell id="0" />
        <mxCell id="1" parent="0" />
        <mxCell id="oLPMuAoCh5_cgTSaJTIH-136" value="" style="endArrow=none;dashed=1;html=1;rounded=0;strokeColor=#808080;dashPattern=8 8;fontColor=#808080;strokeWidth=3;" parent="1" edge="1">
          <mxGeometry width="50" height="50" relative="1" as="geometry">
            <mxPoint x="1340" y="10680" as="sourcePoint" />
            <mxPoint x="2520" y="10680" as="targetPoint" />
          </mxGeometry>
        </mxCell>
        <mxCell id="oLPMuAoCh5_cgTSaJTIH-137" style="edgeStyle=orthogonalEdgeStyle;rounded=0;orthogonalLoop=1;jettySize=auto;html=1;strokeColor=#000000;strokeWidth=2;entryX=0;entryY=0.5;entryDx=0;entryDy=0;exitX=1;exitY=0;exitDx=0;exitDy=0;" parent="1" source="oLPMuAoCh5_cgTSaJTIH-207" target="oLPMuAoCh5_cgTSaJTIH-170" edge="1">
          <mxGeometry relative="1" as="geometry">
            <mxPoint x="2161" y="10810" as="sourcePoint" />
            <mxPoint x="2201" y="10810" as="targetPoint" />
            <Array as="points">
              <mxPoint x="2129.75" y="10851" />
              <mxPoint x="2129.75" y="10760" />
            </Array>
          </mxGeometry>
        </mxCell>
        <mxCell id="oLPMuAoCh5_cgTSaJTIH-138" value="" style="endArrow=classic;html=1;rounded=0;fillColor=#f5f5f5;strokeColor=#B3B3B3;strokeWidth=2;" parent="1" edge="1">
          <mxGeometry width="50" height="50" relative="1" as="geometry">
            <mxPoint x="1539" y="10392" as="sourcePoint" />
            <mxPoint x="1573" y="10361" as="targetPoint" />
          </mxGeometry>
        </mxCell>
        <mxCell id="oLPMuAoCh5_cgTSaJTIH-139" style="edgeStyle=orthogonalEdgeStyle;rounded=0;orthogonalLoop=1;jettySize=auto;html=1;entryX=0.5;entryY=1;entryDx=0;entryDy=0;fillColor=#60a917;strokeColor=#2D7600;strokeWidth=2;" parent="1" source="oLPMuAoCh5_cgTSaJTIH-202" target="oLPMuAoCh5_cgTSaJTIH-142" edge="1">
          <mxGeometry relative="1" as="geometry" />
        </mxCell>
        <mxCell id="oLPMuAoCh5_cgTSaJTIH-140" style="edgeStyle=orthogonalEdgeStyle;rounded=0;orthogonalLoop=1;jettySize=auto;html=1;exitX=1;exitY=0.5;exitDx=0;exitDy=0;strokeColor=#000000;strokeWidth=2;entryX=0;entryY=0.5;entryDx=0;entryDy=0;" parent="1" source="oLPMuAoCh5_cgTSaJTIH-202" target="oLPMuAoCh5_cgTSaJTIH-206" edge="1">
          <mxGeometry relative="1" as="geometry">
            <mxPoint x="1960.75" y="10940" as="sourcePoint" />
            <mxPoint x="1728.25" y="10939" as="targetPoint" />
          </mxGeometry>
        </mxCell>
        <mxCell id="oLPMuAoCh5_cgTSaJTIH-142" value="$$V_1$$" style="ellipse;whiteSpace=wrap;html=1;aspect=fixed;fontSize=24;fontFamily=Verdana;fillColor=#d5e8d4;strokeColor=#82b366;strokeWidth=2;fontColor=#000000;" parent="1" vertex="1">
          <mxGeometry x="1468" y="10560" width="80" height="80" as="geometry" />
        </mxCell>
        <mxCell id="oLPMuAoCh5_cgTSaJTIH-143" style="edgeStyle=orthogonalEdgeStyle;rounded=0;orthogonalLoop=1;jettySize=auto;html=1;exitX=1;exitY=1;exitDx=0;exitDy=0;entryX=1;entryY=0.5;entryDx=0;entryDy=0;fillColor=#dae8fc;strokeColor=#6c8ebf;strokeWidth=2;" parent="1" source="oLPMuAoCh5_cgTSaJTIH-205" target="oLPMuAoCh5_cgTSaJTIH-146" edge="1">
          <mxGeometry relative="1" as="geometry">
            <Array as="points">
              <mxPoint x="2148" y="11020" />
              <mxPoint x="2190" y="11020" />
              <mxPoint x="2190" y="11120" />
            </Array>
          </mxGeometry>
        </mxCell>
        <mxCell id="oLPMuAoCh5_cgTSaJTIH-144" style="edgeStyle=orthogonalEdgeStyle;rounded=0;orthogonalLoop=1;jettySize=auto;html=1;exitX=0.5;exitY=1;exitDx=0;exitDy=0;entryX=0.5;entryY=1;entryDx=0;entryDy=0;strokeColor=#000000;strokeWidth=2;" parent="1" source="oLPMuAoCh5_cgTSaJTIH-204" target="oLPMuAoCh5_cgTSaJTIH-202" edge="1">
          <mxGeometry relative="1" as="geometry">
            <Array as="points">
              <mxPoint x="2451" y="11240" />
              <mxPoint x="1508" y="11240" />
            </Array>
            <mxPoint x="2461" y="10979" as="sourcePoint" />
            <mxPoint x="1301.25" y="10979" as="targetPoint" />
          </mxGeometry>
        </mxCell>
        <mxCell id="oLPMuAoCh5_cgTSaJTIH-145" style="edgeStyle=orthogonalEdgeStyle;rounded=0;orthogonalLoop=1;jettySize=auto;html=1;fillColor=#dae8fc;strokeColor=#6c8ebf;exitX=0;exitY=0.5;exitDx=0;exitDy=0;strokeWidth=2;" parent="1" source="oLPMuAoCh5_cgTSaJTIH-146" edge="1">
          <mxGeometry relative="1" as="geometry">
            <mxPoint x="1680" y="10950" as="targetPoint" />
            <mxPoint x="1914.75" y="11039" as="sourcePoint" />
            <Array as="points">
              <mxPoint x="1680" y="11110" />
              <mxPoint x="1680" y="11000" />
            </Array>
          </mxGeometry>
        </mxCell>
        <mxCell id="oLPMuAoCh5_cgTSaJTIH-146" value="$$W$$" style="ellipse;whiteSpace=wrap;html=1;aspect=fixed;fontSize=24;fontFamily=Verdana;fillColor=#dae8fc;strokeColor=#6c8ebf;strokeWidth=2;fontColor=#000000;" parent="1" vertex="1">
          <mxGeometry x="1880" y="11080" width="80" height="80" as="geometry" />
        </mxCell>
        <mxCell id="oLPMuAoCh5_cgTSaJTIH-147" style="edgeStyle=orthogonalEdgeStyle;rounded=0;orthogonalLoop=1;jettySize=auto;html=1;exitX=0.5;exitY=0;exitDx=0;exitDy=0;shape=link;dashed=1;fillColor=#e1d5e7;strokeColor=#9673a6;strokeWidth=2;entryX=0.5;entryY=1;entryDx=0;entryDy=0;" parent="1" edge="1" target="oLPMuAoCh5_cgTSaJTIH-159" source="oLPMuAoCh5_cgTSaJTIH-170">
          <mxGeometry relative="1" as="geometry">
            <mxPoint x="2319.21" y="10520" as="sourcePoint" />
            <mxPoint x="2319" y="10650" as="targetPoint" />
          </mxGeometry>
        </mxCell>
        <mxCell id="oLPMuAoCh5_cgTSaJTIH-150" value="$$ \nu_{1,jt} $$" style="text;html=1;align=center;verticalAlign=middle;whiteSpace=wrap;rounded=0;rotation=0;fontSize=18;fontFamily=Verdana;fontColor=#000000;strokeWidth=2;" parent="1" vertex="1">
          <mxGeometry x="1461" y="10737.5" width="39" height="30" as="geometry" />
        </mxCell>
        <mxCell id="UCHa1UU7zW6uGpZXuyY--9" style="edgeStyle=orthogonalEdgeStyle;rounded=0;orthogonalLoop=1;jettySize=auto;html=1;" edge="1" parent="1">
          <mxGeometry relative="1" as="geometry">
            <mxPoint x="1652" y="10890" as="targetPoint" />
            <mxPoint x="1648" y="10905" as="sourcePoint" />
          </mxGeometry>
        </mxCell>
        <mxCell id="oLPMuAoCh5_cgTSaJTIH-151" value="$$\Lambda_{jt} + \Psi_{jt} $$" style="text;html=1;align=center;verticalAlign=middle;whiteSpace=wrap;rounded=0;rotation=0;fontSize=18;fontFamily=Verdana;fontColor=#000000;strokeWidth=2;" parent="1" vertex="1">
          <mxGeometry x="1606" y="10905" width="94" height="30" as="geometry" />
        </mxCell>
        <mxCell id="oLPMuAoCh5_cgTSaJTIH-152" value="$$ \gamma_1 $$" style="text;html=1;align=center;verticalAlign=middle;whiteSpace=wrap;rounded=0;rotation=0;fontSize=18;fontFamily=Verdana;fontColor=#000000;strokeWidth=2;" parent="1" vertex="1">
          <mxGeometry x="2220.5" y="10847" width="70" height="30" as="geometry" />
        </mxCell>
        <mxCell id="oLPMuAoCh5_cgTSaJTIH-153" value="$$ \omega_1\phi_1 $$" style="text;html=1;align=center;verticalAlign=middle;whiteSpace=wrap;rounded=0;rotation=0;fontSize=18;fontFamily=Verdana;fontColor=#000000;strokeWidth=2;" parent="1" vertex="1">
          <mxGeometry x="1400" y="10599.5" width="39" height="30" as="geometry" />
        </mxCell>
        <mxCell id="oLPMuAoCh5_cgTSaJTIH-154" value="" style="endArrow=classic;html=1;rounded=0;fillColor=#f5f5f5;strokeColor=#B3B3B3;strokeWidth=2;" parent="1" edge="1">
          <mxGeometry width="50" height="50" relative="1" as="geometry">
            <mxPoint x="1539" y="10914" as="sourcePoint" />
            <mxPoint x="1573" y="10883" as="targetPoint" />
          </mxGeometry>
        </mxCell>
        <mxCell id="oLPMuAoCh5_cgTSaJTIH-155" value="$$ \varepsilon $$" style="text;html=1;align=center;verticalAlign=middle;whiteSpace=wrap;rounded=0;rotation=0;fontSize=19;fontFamily=Verdana;fontColor=#000000;strokeWidth=2;" parent="1" vertex="1">
          <mxGeometry x="1980.75" y="11242" width="39" height="30" as="geometry" />
        </mxCell>
        <mxCell id="oLPMuAoCh5_cgTSaJTIH-156" value="$$ d_j $$" style="text;html=1;align=center;verticalAlign=middle;whiteSpace=wrap;rounded=0;rotation=0;fontSize=17;fontFamily=Verdana;fillColor=none;fontColor=#B3B3B3;strokeColor=none;strokeWidth=2;" parent="1" vertex="1">
          <mxGeometry x="1533" y="10872" width="20" height="30" as="geometry" />
        </mxCell>
        <mxCell id="oLPMuAoCh5_cgTSaJTIH-157" style="edgeStyle=orthogonalEdgeStyle;rounded=0;orthogonalLoop=1;jettySize=auto;html=1;strokeColor=#000000;strokeWidth=2;exitX=0.5;exitY=0;exitDx=0;exitDy=0;entryX=1;entryY=0.5;entryDx=0;entryDy=0;" parent="1" source="oLPMuAoCh5_cgTSaJTIH-207" target="oLPMuAoCh5_cgTSaJTIH-163" edge="1">
          <mxGeometry relative="1" as="geometry">
            <mxPoint x="2081" y="10800" as="sourcePoint" />
            <Array as="points">
              <mxPoint x="2110" y="10839" />
              <mxPoint x="2110" y="10760" />
            </Array>
            <mxPoint x="2080" y="10630" as="targetPoint" />
          </mxGeometry>
        </mxCell>
        <mxCell id="oLPMuAoCh5_cgTSaJTIH-158" value="Reported cases" style="whiteSpace=wrap;html=1;fillColor=#d0cee2;strokeColor=#56517e;strokeWidth=2;fontSize=16;fontColor=#000000;" parent="1" vertex="1">
          <mxGeometry x="1877.5" y="10560" width="90" height="80" as="geometry" />
        </mxCell>
        <mxCell id="oLPMuAoCh5_cgTSaJTIH-159" value="Reported deaths" style="whiteSpace=wrap;html=1;fillColor=#d0cee2;strokeColor=#56517e;strokeWidth=2;fontSize=16;fontColor=#000000;" parent="1" vertex="1">
          <mxGeometry x="2275.5" y="10560" width="90" height="80" as="geometry" />
        </mxCell>
        <mxCell id="oLPMuAoCh5_cgTSaJTIH-160" value="$$ \sigma $$" style="text;html=1;align=center;verticalAlign=middle;whiteSpace=wrap;rounded=0;rotation=0;fontSize=18;fontFamily=Verdana;fontColor=#000000;strokeWidth=2;" parent="1" vertex="1">
          <mxGeometry x="1991" y="10849" width="20" height="30" as="geometry" />
        </mxCell>
        <mxCell id="oLPMuAoCh5_cgTSaJTIH-161" value="$$ 1-\sigma $$" style="text;html=1;align=center;verticalAlign=middle;whiteSpace=wrap;rounded=0;rotation=0;fontSize=18;fontFamily=Verdana;fontColor=#000000;strokeWidth=2;" parent="1" vertex="1">
          <mxGeometry x="1981.75" y="10969" width="37" height="30" as="geometry" />
        </mxCell>
        <mxCell id="oLPMuAoCh5_cgTSaJTIH-162" style="edgeStyle=orthogonalEdgeStyle;rounded=0;orthogonalLoop=1;jettySize=auto;html=1;exitX=0.5;exitY=0;exitDx=0;exitDy=0;entryX=0.5;entryY=1;entryDx=0;entryDy=0;shape=link;dashed=1;fillColor=#e1d5e7;strokeColor=#9673a6;strokeWidth=2;" parent="1" source="oLPMuAoCh5_cgTSaJTIH-163" target="oLPMuAoCh5_cgTSaJTIH-158" edge="1">
          <mxGeometry relative="1" as="geometry" />
        </mxCell>
        <mxCell id="oLPMuAoCh5_cgTSaJTIH-163" value="&lt;span style=&quot;font-size: 16px;&quot;&gt;Expected&lt;/span&gt;&lt;div&gt;&lt;span style=&quot;font-size: 16px;&quot;&gt;cases&lt;/span&gt;&lt;/div&gt;" style="ellipse;whiteSpace=wrap;html=1;fontSize=18;fontFamily=Verdana;fillColor=#d0cee2;strokeColor=#56517e;strokeWidth=2;fontColor=#000000;" parent="1" vertex="1">
          <mxGeometry x="1880" y="10720" width="85" height="80" as="geometry" />
        </mxCell>
        <mxCell id="oLPMuAoCh5_cgTSaJTIH-164" value="$$ 1/\rho $$" style="text;html=1;align=center;verticalAlign=middle;whiteSpace=wrap;rounded=0;rotation=0;fontSize=18;fontFamily=Verdana;fontColor=#000000;strokeWidth=2;" parent="1" vertex="1">
          <mxGeometry x="2030" y="10727.5" width="20" height="30" as="geometry" />
        </mxCell>
        <UserObject label="Not observed" placeholders="1" name="Variable" id="oLPMuAoCh5_cgTSaJTIH-165">
          <mxCell style="text;html=1;strokeColor=none;fillColor=none;align=center;verticalAlign=middle;whiteSpace=wrap;overflow=hidden;fontSize=18;fontColor=#808080;strokeWidth=2;" parent="1" vertex="1">
            <mxGeometry x="2399.5" y="10688.5" width="141" height="39" as="geometry" />
          </mxCell>
        </UserObject>
        <mxCell id="oLPMuAoCh5_cgTSaJTIH-167" value="$$ \zeta_1 $$" style="text;html=1;align=center;verticalAlign=middle;whiteSpace=wrap;rounded=0;rotation=0;fontSize=18;fontFamily=Verdana;fillColor=none;fontColor=#000000;strokeColor=none;strokeWidth=2;" parent="1" vertex="1">
          <mxGeometry x="2220.75" y="11062" width="20" height="30" as="geometry" />
        </mxCell>
        <mxCell id="oLPMuAoCh5_cgTSaJTIH-168" value="" style="endArrow=classic;html=1;rounded=0;fillColor=#f5f5f5;strokeColor=#6C8EBF;strokeWidth=2;exitX=0.5;exitY=1;exitDx=0;exitDy=0;" parent="1" source="oLPMuAoCh5_cgTSaJTIH-146" edge="1">
          <mxGeometry width="50" height="50" relative="1" as="geometry">
            <mxPoint x="1956.25" y="11159" as="sourcePoint" />
            <mxPoint x="1920" y="11220" as="targetPoint" />
          </mxGeometry>
        </mxCell>
        <mxCell id="oLPMuAoCh5_cgTSaJTIH-169" value="$$ \delta $$" style="text;html=1;align=center;verticalAlign=middle;whiteSpace=wrap;rounded=0;rotation=0;fontSize=18;fontFamily=Verdana;fontColor=#000000;strokeWidth=2;" parent="1" vertex="1">
          <mxGeometry x="1876" y="11169" width="51.5" height="30" as="geometry" />
        </mxCell>
        <mxCell id="oLPMuAoCh5_cgTSaJTIH-170" value="&lt;div style=&quot;&quot;&gt;&lt;font style=&quot;font-size: 16px;&quot;&gt;Expected&lt;/font&gt;&lt;/div&gt;&lt;div style=&quot;&quot;&gt;&lt;font style=&quot;font-size: 16px;&quot;&gt;deaths&lt;/font&gt;&lt;/div&gt;" style="ellipse;whiteSpace=wrap;html=1;fontSize=18;fontFamily=Verdana;fillColor=#d0cee2;strokeColor=#56517e;strokeWidth=2;fontColor=#000000;" parent="1" vertex="1">
          <mxGeometry x="2278" y="10720" width="85" height="80" as="geometry" />
        </mxCell>
        <mxCell id="oLPMuAoCh5_cgTSaJTIH-171" value="$$b_j$$" style="text;html=1;align=center;verticalAlign=middle;whiteSpace=wrap;rounded=0;rotation=0;fontSize=17;fontFamily=Verdana;fillColor=none;fontColor=#B3B3B3;strokeColor=none;strokeWidth=2;" parent="1" vertex="1">
          <mxGeometry x="1453" y="10989" width="20" height="30" as="geometry" />
        </mxCell>
        <mxCell id="oLPMuAoCh5_cgTSaJTIH-172" value="" style="endArrow=classic;html=1;rounded=0;fillColor=#f5f5f5;strokeColor=#B3B3B3;strokeWidth=2;" parent="1" edge="1">
          <mxGeometry width="50" height="50" relative="1" as="geometry">
            <mxPoint x="1442" y="11000" as="sourcePoint" />
            <mxPoint x="1476" y="10969" as="targetPoint" />
          </mxGeometry>
        </mxCell>
        <mxCell id="oLPMuAoCh5_cgTSaJTIH-173" value="$$ d_j $$" style="text;html=1;align=center;verticalAlign=middle;whiteSpace=wrap;rounded=0;rotation=0;fontSize=17;fontFamily=Verdana;fillColor=none;fontColor=#B3B3B3;strokeColor=none;strokeWidth=2;" parent="1" vertex="1">
          <mxGeometry x="1533" y="10530" width="20" height="30" as="geometry" />
        </mxCell>
        <mxCell id="oLPMuAoCh5_cgTSaJTIH-174" value="" style="endArrow=classic;html=1;rounded=0;fillColor=#f5f5f5;strokeColor=#B3B3B3;strokeWidth=2;" parent="1" edge="1">
          <mxGeometry width="50" height="50" relative="1" as="geometry">
            <mxPoint x="1537" y="10573" as="sourcePoint" />
            <mxPoint x="1571" y="10542" as="targetPoint" />
          </mxGeometry>
        </mxCell>
        <mxCell id="oLPMuAoCh5_cgTSaJTIH-177" value="$$V_2$$" style="ellipse;whiteSpace=wrap;html=1;aspect=fixed;fontSize=24;fontFamily=Verdana;fillColor=#d5e8d4;strokeColor=#82b366;strokeWidth=2;fontColor=#000000;" parent="1" vertex="1">
          <mxGeometry x="1468" y="10380" width="80" height="80" as="geometry" />
        </mxCell>
        <mxCell id="oLPMuAoCh5_cgTSaJTIH-178" style="edgeStyle=orthogonalEdgeStyle;rounded=0;orthogonalLoop=1;jettySize=auto;html=1;fillColor=#60a917;strokeColor=#2D7600;strokeWidth=2;entryX=0.5;entryY=1;entryDx=0;entryDy=0;" parent="1" target="oLPMuAoCh5_cgTSaJTIH-177" edge="1">
          <mxGeometry relative="1" as="geometry">
            <mxPoint x="1507" y="10560" as="sourcePoint" />
            <mxPoint x="1507" y="10500" as="targetPoint" />
          </mxGeometry>
        </mxCell>
        <mxCell id="oLPMuAoCh5_cgTSaJTIH-181" value="$$ d_j $$" style="text;html=1;align=center;verticalAlign=middle;whiteSpace=wrap;rounded=0;rotation=0;fontSize=17;fontFamily=Verdana;fillColor=none;fontColor=#B3B3B3;strokeColor=none;strokeWidth=2;" parent="1" vertex="1">
          <mxGeometry x="1533" y="10350" width="20" height="30" as="geometry" />
        </mxCell>
        <mxCell id="oLPMuAoCh5_cgTSaJTIH-182" value="$$ \omega_2\phi_2 $$" style="text;html=1;align=center;verticalAlign=middle;whiteSpace=wrap;rounded=0;rotation=0;fontSize=18;fontFamily=Verdana;fontColor=#000000;strokeWidth=2;" parent="1" vertex="1">
          <mxGeometry x="1400" y="10430" width="39" height="11" as="geometry" />
        </mxCell>
        <mxCell id="oLPMuAoCh5_cgTSaJTIH-183" value="$$ d_j $$" style="text;html=1;align=center;verticalAlign=middle;whiteSpace=wrap;rounded=0;rotation=0;fontSize=17;fontFamily=Verdana;fillColor=none;fontColor=#B3B3B3;strokeColor=none;strokeWidth=2;" parent="1" vertex="1">
          <mxGeometry x="1819.75" y="10873" width="20" height="30" as="geometry" />
        </mxCell>
        <mxCell id="oLPMuAoCh5_cgTSaJTIH-184" value="" style="endArrow=classic;html=1;rounded=0;fillColor=#f5f5f5;strokeColor=#B3B3B3;strokeWidth=2;" parent="1" edge="1">
          <mxGeometry width="50" height="50" relative="1" as="geometry">
            <mxPoint x="1824.75" y="10916" as="sourcePoint" />
            <mxPoint x="1858.75" y="10885" as="targetPoint" />
          </mxGeometry>
        </mxCell>
        <mxCell id="oLPMuAoCh5_cgTSaJTIH-186" value="$$ \iota $$" style="text;html=1;align=center;verticalAlign=middle;whiteSpace=wrap;rounded=0;rotation=0;fontSize=19;fontFamily=Verdana;fontColor=#000000;strokeWidth=2;" parent="1" vertex="1">
          <mxGeometry x="1840" y="10906" width="70" height="30" as="geometry" />
        </mxCell>
        <mxCell id="oLPMuAoCh5_cgTSaJTIH-187" value="$$ \nu_{2,jt} $$" style="text;html=1;align=center;verticalAlign=middle;whiteSpace=wrap;rounded=0;rotation=0;fontSize=18;fontFamily=Verdana;fontColor=#000000;strokeWidth=2;" parent="1" vertex="1">
          <mxGeometry x="1461" y="10490" width="39" height="30" as="geometry" />
        </mxCell>
        <mxCell id="oLPMuAoCh5_cgTSaJTIH-188" style="edgeStyle=orthogonalEdgeStyle;rounded=0;orthogonalLoop=1;jettySize=auto;html=1;exitX=1;exitY=0.5;exitDx=0;exitDy=0;entryX=0;entryY=0.5;entryDx=0;entryDy=0;strokeWidth=2;strokeColor=#000000;" parent="1" target="oLPMuAoCh5_cgTSaJTIH-205" edge="1">
          <mxGeometry relative="1" as="geometry">
            <mxPoint x="1835.25" y="10939" as="sourcePoint" />
            <mxPoint x="2005.25" y="10873" as="targetPoint" />
            <Array as="points">
              <mxPoint x="1919" y="10939" />
              <mxPoint x="1919" y="11000" />
            </Array>
          </mxGeometry>
        </mxCell>
        <mxCell id="oLPMuAoCh5_cgTSaJTIH-189" style="edgeStyle=orthogonalEdgeStyle;rounded=0;orthogonalLoop=1;jettySize=auto;html=1;exitX=1;exitY=0.5;exitDx=0;exitDy=0;strokeWidth=2;strokeColor=#000000;entryX=0;entryY=0.5;entryDx=0;entryDy=0;" parent="1" source="oLPMuAoCh5_cgTSaJTIH-206" target="oLPMuAoCh5_cgTSaJTIH-207" edge="1">
          <mxGeometry relative="1" as="geometry">
            <mxPoint x="1835.25" y="10939" as="sourcePoint" />
            <mxPoint x="1978.25" y="10920" as="targetPoint" />
            <Array as="points">
              <mxPoint x="1919" y="10939" />
              <mxPoint x="1919" y="10879" />
            </Array>
          </mxGeometry>
        </mxCell>
        <mxCell id="oLPMuAoCh5_cgTSaJTIH-190" style="edgeStyle=orthogonalEdgeStyle;rounded=0;orthogonalLoop=1;jettySize=auto;html=1;exitX=1;exitY=1;exitDx=0;exitDy=0;fillColor=#dae8fc;strokeColor=#6c8ebf;strokeWidth=2;" parent="1" source="oLPMuAoCh5_cgTSaJTIH-207" edge="1">
          <mxGeometry relative="1" as="geometry">
            <mxPoint x="2081.0342712474617" y="10917.284271247461" as="sourcePoint" />
            <mxPoint x="1970" y="11120" as="targetPoint" />
            <Array as="points">
              <mxPoint x="2148" y="10900" />
              <mxPoint x="2210" y="10900" />
              <mxPoint x="2210" y="11120" />
            </Array>
          </mxGeometry>
        </mxCell>
        <mxCell id="oLPMuAoCh5_cgTSaJTIH-191" value="$$ \zeta_2 $$" style="text;html=1;align=center;verticalAlign=middle;whiteSpace=wrap;rounded=0;rotation=0;fontSize=18;fontFamily=Verdana;fillColor=none;fontColor=#000000;strokeColor=none;strokeWidth=2;" parent="1" vertex="1">
          <mxGeometry x="2159.25" y="11062" width="20" height="30" as="geometry" />
        </mxCell>
        <mxCell id="oLPMuAoCh5_cgTSaJTIH-192" style="edgeStyle=orthogonalEdgeStyle;rounded=0;orthogonalLoop=1;jettySize=auto;html=1;exitX=1;exitY=0.5;exitDx=0;exitDy=0;strokeWidth=2;strokeColor=#000000;entryX=0;entryY=0.5;entryDx=0;entryDy=0;" parent="1" source="oLPMuAoCh5_cgTSaJTIH-207" target="oLPMuAoCh5_cgTSaJTIH-204" edge="1">
          <mxGeometry relative="1" as="geometry">
            <mxPoint x="2175.75" y="10890" as="sourcePoint" />
            <mxPoint x="2381.25" y="10960" as="targetPoint" />
            <Array as="points">
              <mxPoint x="2321" y="10879" />
              <mxPoint x="2321" y="10939" />
            </Array>
          </mxGeometry>
        </mxCell>
        <mxCell id="oLPMuAoCh5_cgTSaJTIH-193" style="edgeStyle=orthogonalEdgeStyle;rounded=0;orthogonalLoop=1;jettySize=auto;html=1;exitX=1;exitY=0.5;exitDx=0;exitDy=0;strokeWidth=2;strokeColor=#000000;" parent="1" source="oLPMuAoCh5_cgTSaJTIH-205" edge="1">
          <mxGeometry relative="1" as="geometry">
            <mxPoint x="2169.25" y="10899" as="sourcePoint" />
            <mxPoint x="2400" y="10939" as="targetPoint" />
            <Array as="points">
              <mxPoint x="2321" y="11000" />
              <mxPoint x="2321" y="10939" />
            </Array>
          </mxGeometry>
        </mxCell>
        <mxCell id="oLPMuAoCh5_cgTSaJTIH-194" value="$$ d_j $$" style="text;html=1;align=center;verticalAlign=middle;whiteSpace=wrap;rounded=0;rotation=0;fontSize=17;fontFamily=Verdana;fillColor=none;fontColor=#B3B3B3;strokeColor=none;strokeWidth=2;" parent="1" vertex="1">
          <mxGeometry x="2471.25" y="10867" width="20" height="30" as="geometry" />
        </mxCell>
        <mxCell id="oLPMuAoCh5_cgTSaJTIH-195" value="" style="endArrow=classic;html=1;rounded=0;fillColor=#f5f5f5;strokeColor=#B3B3B3;strokeWidth=2;" parent="1" edge="1">
          <mxGeometry width="50" height="50" relative="1" as="geometry">
            <mxPoint x="2477.25" y="10909" as="sourcePoint" />
            <mxPoint x="2511.25" y="10878" as="targetPoint" />
          </mxGeometry>
        </mxCell>
        <mxCell id="oLPMuAoCh5_cgTSaJTIH-215" value="" style="edgeStyle=orthogonalEdgeStyle;rounded=0;orthogonalLoop=1;jettySize=auto;html=1;" parent="1" source="oLPMuAoCh5_cgTSaJTIH-196" target="oLPMuAoCh5_cgTSaJTIH-213" edge="1">
          <mxGeometry relative="1" as="geometry" />
        </mxCell>
        <mxCell id="oLPMuAoCh5_cgTSaJTIH-196" value="$$ \gamma_2 $$" style="text;html=1;align=center;verticalAlign=middle;whiteSpace=wrap;rounded=0;rotation=0;fontSize=18;fontFamily=Verdana;fontColor=#000000;strokeWidth=2;" parent="1" vertex="1">
          <mxGeometry x="2220.75" y="10968" width="70" height="30" as="geometry" />
        </mxCell>
        <UserObject label="Observed" placeholders="1" name="Variable" id="oLPMuAoCh5_cgTSaJTIH-198">
          <mxCell style="text;html=1;strokeColor=none;fillColor=none;align=center;verticalAlign=middle;whiteSpace=wrap;overflow=hidden;fontSize=18;fontColor=#808080;strokeWidth=2;" parent="1" vertex="1">
            <mxGeometry x="2396" y="10629.5" width="141" height="39" as="geometry" />
          </mxCell>
        </UserObject>
        <mxCell id="oLPMuAoCh5_cgTSaJTIH-199" value="" style="edgeStyle=orthogonalEdgeStyle;rounded=0;orthogonalLoop=1;jettySize=auto;html=1;shape=link;dashed=1;strokeColor=none;strokeWidth=2;" parent="1" edge="1">
          <mxGeometry relative="1" as="geometry">
            <mxPoint x="2209.4666666666667" y="10760" as="targetPoint" />
            <mxPoint x="2200.75" y="10784" as="sourcePoint" />
          </mxGeometry>
        </mxCell>
        <mxCell id="oLPMuAoCh5_cgTSaJTIH-200" style="edgeStyle=orthogonalEdgeStyle;rounded=0;orthogonalLoop=1;jettySize=auto;html=1;fillColor=#60a917;strokeColor=#2D7600;strokeWidth=2;exitX=0;exitY=0.5;exitDx=0;exitDy=0;" parent="1" source="oLPMuAoCh5_cgTSaJTIH-142" edge="1">
          <mxGeometry relative="1" as="geometry">
            <mxPoint x="1452.95" y="10562.5" as="sourcePoint" />
            <mxPoint x="1450" y="10940" as="targetPoint" />
            <Array as="points">
              <mxPoint x="1370" y="10600" />
              <mxPoint x="1370" y="10939" />
            </Array>
          </mxGeometry>
        </mxCell>
        <mxCell id="oLPMuAoCh5_cgTSaJTIH-201" style="edgeStyle=orthogonalEdgeStyle;rounded=0;orthogonalLoop=1;jettySize=auto;html=1;fillColor=#60a917;strokeColor=#2D7600;strokeWidth=2;exitX=0;exitY=0.5;exitDx=0;exitDy=0;" parent="1" source="oLPMuAoCh5_cgTSaJTIH-177" target="oLPMuAoCh5_cgTSaJTIH-202" edge="1">
          <mxGeometry relative="1" as="geometry">
            <mxPoint x="1444.6" y="10554" as="sourcePoint" />
            <mxPoint x="1440.75" y="10934" as="targetPoint" />
            <Array as="points">
              <mxPoint x="1370" y="10420" />
              <mxPoint x="1370" y="10939" />
            </Array>
          </mxGeometry>
        </mxCell>
        <mxCell id="oLPMuAoCh5_cgTSaJTIH-202" value="$$S$$" style="ellipse;whiteSpace=wrap;html=1;aspect=fixed;fontSize=24;fontFamily=Verdana;fillColor=#FFFFFF;strokeColor=#000000;fontColor=#000000;strokeWidth=2;" parent="1" vertex="1">
          <mxGeometry x="1468" y="10899" width="80" height="80" as="geometry" />
        </mxCell>
        <mxCell id="oLPMuAoCh5_cgTSaJTIH-204" value="$$R$$" style="ellipse;whiteSpace=wrap;html=1;aspect=fixed;fontSize=24;fontFamily=Verdana;fillColor=#FFFFFF;strokeColor=#000000;fontColor=#000000;strokeWidth=2;" parent="1" vertex="1">
          <mxGeometry x="2411.25" y="10899" width="80" height="80" as="geometry" />
        </mxCell>
        <mxCell id="oLPMuAoCh5_cgTSaJTIH-205" value="&lt;div style=&quot;font-size: 18px;&quot;&gt;$$I_2$$&lt;/div&gt;" style="ellipse;whiteSpace=wrap;html=1;aspect=fixed;fontSize=18;fontFamily=Verdana;fillColor=#FFFFFF;strokeColor=#000000;strokeWidth=2;fontColor=#000000;" parent="1" vertex="1">
          <mxGeometry x="2079.25" y="10960" width="80" height="80" as="geometry" />
        </mxCell>
        <mxCell id="oLPMuAoCh5_cgTSaJTIH-206" value="$$E$$" style="ellipse;whiteSpace=wrap;html=1;aspect=fixed;fontSize=24;fontFamily=Verdana;fillColor=#FFFFFF;strokeColor=#000000;fontColor=#000000;strokeWidth=2;" parent="1" vertex="1">
          <mxGeometry x="1751.25" y="10899" width="80" height="80" as="geometry" />
        </mxCell>
        <mxCell id="oLPMuAoCh5_cgTSaJTIH-207" value="&lt;div style=&quot;font-size: 18px;&quot;&gt;$$I_1$$&lt;/div&gt;" style="ellipse;whiteSpace=wrap;html=1;aspect=fixed;fontSize=18;fontFamily=Verdana;fillColor=#FFFFFF;strokeColor=#000000;strokeWidth=2;fontColor=#000000;" parent="1" vertex="1">
          <mxGeometry x="2079.25" y="10839" width="80" height="80" as="geometry" />
        </mxCell>
        <mxCell id="oLPMuAoCh5_cgTSaJTIH-208" value="$$ \mu_j $$" style="text;html=1;align=center;verticalAlign=middle;whiteSpace=wrap;rounded=0;rotation=0;fontSize=18;fontFamily=Verdana;fontColor=#000000;strokeWidth=2;" parent="1" vertex="1">
          <mxGeometry x="2205.5" y="10727.5" width="20" height="30" as="geometry" />
        </mxCell>
        <mxCell id="oLPMuAoCh5_cgTSaJTIH-209" value="$$ d_j $$" style="text;html=1;align=center;verticalAlign=middle;whiteSpace=wrap;rounded=0;rotation=0;fontSize=17;fontFamily=Verdana;fillColor=none;fontColor=#B3B3B3;strokeColor=none;strokeWidth=2;fontStyle=1" parent="1" vertex="1">
          <mxGeometry x="2145" y="10809" width="20" height="30" as="geometry" />
        </mxCell>
        <mxCell id="oLPMuAoCh5_cgTSaJTIH-210" value="" style="endArrow=classic;html=1;rounded=0;fillColor=#f5f5f5;strokeColor=#B3B3B3;strokeWidth=2;fontStyle=1" parent="1" edge="1">
          <mxGeometry width="50" height="50" relative="1" as="geometry">
            <mxPoint x="2151" y="10851" as="sourcePoint" />
            <mxPoint x="2185" y="10820" as="targetPoint" />
          </mxGeometry>
        </mxCell>
        <mxCell id="oLPMuAoCh5_cgTSaJTIH-213" value="$$ d_j $$" style="text;html=1;align=center;verticalAlign=middle;whiteSpace=wrap;rounded=0;rotation=0;fontSize=17;fontFamily=Verdana;fillColor=none;fontColor=#B3B3B3;strokeColor=none;strokeWidth=2;fontStyle=1" parent="1" vertex="1">
          <mxGeometry x="2146.5" y="10935" width="20" height="30" as="geometry" />
        </mxCell>
        <mxCell id="oLPMuAoCh5_cgTSaJTIH-214" value="" style="endArrow=classic;html=1;rounded=0;fillColor=#f5f5f5;strokeColor=#B3B3B3;strokeWidth=2;fontStyle=1" parent="1" edge="1">
          <mxGeometry width="50" height="50" relative="1" as="geometry">
            <mxPoint x="2152.5" y="10977" as="sourcePoint" />
            <mxPoint x="2186.5" y="10946" as="targetPoint" />
          </mxGeometry>
        </mxCell>
        <mxCell id="UCHa1UU7zW6uGpZXuyY--1" style="edgeStyle=orthogonalEdgeStyle;rounded=0;orthogonalLoop=1;jettySize=auto;html=1;fillColor=#60a917;strokeColor=#2D7600;strokeWidth=2;exitX=1;exitY=0.5;exitDx=0;exitDy=0;" edge="1" parent="1" source="oLPMuAoCh5_cgTSaJTIH-142">
          <mxGeometry relative="1" as="geometry">
            <mxPoint x="1478" y="10570" as="sourcePoint" />
            <mxPoint x="1652" y="10890" as="targetPoint" />
            <Array as="points">
              <mxPoint x="1652" y="10600" />
            </Array>
          </mxGeometry>
        </mxCell>
        <mxCell id="UCHa1UU7zW6uGpZXuyY--4" style="edgeStyle=orthogonalEdgeStyle;rounded=0;orthogonalLoop=1;jettySize=auto;html=1;fillColor=#60a917;strokeColor=#2D7600;strokeWidth=2;exitX=1;exitY=0.5;exitDx=0;exitDy=0;" edge="1" parent="1" source="oLPMuAoCh5_cgTSaJTIH-177">
          <mxGeometry relative="1" as="geometry">
            <mxPoint x="1548" y="10409" as="sourcePoint" />
            <mxPoint x="1652" y="10880" as="targetPoint" />
            <Array as="points">
              <mxPoint x="1652" y="10420" />
            </Array>
          </mxGeometry>
        </mxCell>
        <mxCell id="UCHa1UU7zW6uGpZXuyY--5" value="$$1-\phi_2$$" style="text;html=1;align=center;verticalAlign=middle;whiteSpace=wrap;rounded=0;rotation=0;fontSize=18;fontFamily=Verdana;fontColor=#000000;strokeWidth=2;" vertex="1" parent="1">
          <mxGeometry x="1580" y="10430" width="39" height="11" as="geometry" />
        </mxCell>
        <mxCell id="UCHa1UU7zW6uGpZXuyY--8" value="$$1-\phi_1$$" style="text;html=1;align=center;verticalAlign=middle;whiteSpace=wrap;rounded=0;rotation=0;fontSize=18;fontFamily=Verdana;fontColor=#000000;strokeWidth=2;" vertex="1" parent="1">
          <mxGeometry x="1580" y="10609" width="39" height="11" as="geometry" />
        </mxCell>
      </root>
    </mxGraphModel>
  </diagram>
</mxfile>
